<!--?xml version="1.0" encoding="utf-8"?-->
<!-- Generator: Adobe Illustrator 18.1.1, SVG Export Plug-In . SVG Version: 6.00 Build 0)  -->

<svg version="1.1" id="_x32_" xmlns="http://www.w3.org/2000/svg" xmlns:xlink="http://www.w3.org/1999/xlink" x="0px" y="0px" viewBox="0 0 512 512" style="width: 256px; height: 256px; opacity: 1;" xml:space="preserve">
<style type="text/css">
	.st0{fill:#4B4B4B;}
</style>
<g>
	<path class="st0" d="M500.642,122.469C475.578,41.024,366.984-42.507,273.007,24.318c-64.733,8.358-153.77,33.97-153.77,33.97
		c-26.077,9.397-46.278,30.421-54.61,56.862c0,0-53.275,224.187-55.793,256.881c-3.132,40.714-6.262,65.778,18.797,101.277
		c25.059,35.508,98.15,57.437,138.876,16.716c25.14-25.158,31.325-92.937,0-112.778l-28.194,15.666c0,0,21.924,39.674-9.401,54.293
		c-31.325,14.62-49.307-21.353-41.766-61.602c6.267-33.412,36.548-58.476,53.25-64.746c10.444-3.904,37.587-4.97,56.495-5.214
		c-6.025-21.633-10.504-46.46-11.594-74.135h18.798c0,0,0.667,33.996,11.416,74.126c0.706,0,9.469,24.024,9.469,24.024
		s29.238,64.738,66.825,75.183c53.812,14.94,148.274-22.968,164.98-48.04C470.563,346.14,520.513,187.062,500.642,122.469z
		 M162.325,199.738c-11.53,0-20.884-9.355-20.884-20.881c0-11.534,9.354-20.89,20.884-20.89c11.531,0,20.885,9.355,20.885,20.89
		C183.21,190.384,173.856,199.738,162.325,199.738z" style="fill: rgb(58, 171, 210);"></path>
</g>
</svg>
